<svg xmlns="http://www.w3.org/2000/svg" viewBox="0 0 973 224">
  <path fill="#fff" d="M0 86.59h85v85H0zm85-85h85v85H85zm515.63 130.48q0-10.9-5.1-18.46t-16.06-13.36-33.1-11.9q-22.15-6.08-33.23-12.3-11.07-6.2-16.23-14.4-5.15-8.21-5.15-19.93 0-18.63 15.7-30.18Q523.16 0 548.36 0q16.4 0 29.47 6.39t20.22 17.93 7.15 26.07h-6.33q0-19.1-14.06-31.58T548.36 6.33q-22.5 0-36.39 10.02T498.1 41.48q0 15.36 12.07 24.73T550 82.8t40.66 16.7q16.41 12.07 16.41 32.35 0 12.89-7.26 22.79t-20.63 15.3q-13.36 5.38-30 5.38-18.52 0-33.28-6.15t-22.2-17.52-7.45-26.84h6.33q0 20.98 15.7 32.58t40.9 11.6q22.38 0 36.91-10.25 14.54-10.25 14.54-26.66m75.23 31.05.82-2.34 43.83-114.6h7.03L670.82 195l-2.81 7.03q-9.14 22.15-30.24 22.15-6.8 0-9.37-1.29l-.12-5.98q3.75 1.06 8.56 1.06 9.96 0 16.52-5.8t11.37-18.93l7.73-20.97-50.5-126.1h6.9zm82.15-87.42q6.2-14.76 18.28-23.32 12.07-8.55 26.72-8.55 20.39 0 30.3 11.54t10.01 34.86v82.74H837V90q-.11-20.4-8.32-30.18-8.2-9.78-26.01-9.78-16.41 0-28.42 11.66T758 91.76v81.2h-6.33V46.18H758zm168.05 93.28q17.22 0 28.41-9.14t12.25-25.3h6.33q-.94 18.39-14.18 29.58-13.24 11.2-32.81 11.2-23.8 0-37.8-17.23t-14-46.76v-4.22q0-28.83 14-46.06 14-17.22 37.56-17.22 20.16 0 33.28 12.07T973.05 88h-6.33q-.82-17.1-12.01-27.47t-28.89-10.37q-21.21 0-33.22 15.29-12.01 15.3-12.01 42.48v4.1q0 26.6 12.13 41.78 12.12 15.17 33.34 15.17m-719.26 3.99V2.34h55.79q27.77 0 41.77 11.49t14 33.98q0 11.96-6.79 21.15-6.8 9.2-18.51 14.24 13.82 3.87 21.85 14.71t8.03 25.84q0 22.97-14.88 36.1-14.89 13.12-42.08 13.12zm22.5-79.8v61.4h37.15q15.7 0 24.79-8.14t9.08-22.45q0-30.82-33.51-30.82zm0-18.05h33.99q14.77 0 23.61-7.39t8.85-20.03q0-14.07-8.2-20.45-8.2-6.4-24.96-6.4H229.3zm147.08 97.85H354.7V46.17h21.68zM352.94 12.54q0-5.27 3.22-8.9T365.71 0t9.61 3.63 3.28 8.9q0 5.28-3.28 8.8-3.28 3.51-9.6 3.51-6.34 0-9.56-3.51-3.22-3.52-3.22-8.8m87.54 2.93v30.7h23.67v16.76h-23.67v78.63q0 7.62 3.16 11.43t10.78 3.8q3.75 0 10.31-1.4v17.58q-8.55 2.34-16.64 2.34-14.53 0-21.91-8.79t-7.38-24.96V62.93h-23.1V46.17h23.09v-30.7z" />
</svg>
